<svg width="238" height="40" viewBox="0 0 238 40" xmlns="http://www.w3.org/2000/svg" xmlns:xlink="http://www.w3.org/1999/xlink"><title>Page 1</title><defs><path id="a" d="M0 39.808h237.255V0H0z"/></defs><g fill="none" fill-rule="evenodd"><mask id="b" fill="#fff"><use xlink:href="#a"/></mask><path d="M128.436 28.92c-1.106 0-1.94-.868-1.94-1.947 0-1.08.84-1.96 1.95-1.96 1.107 0 1.944.87 1.944 1.948 0 1.08-.843 1.96-1.954 1.96zm.01-4.122c-1.22 0-2.18.99-2.18 2.175 0 1.187.95 2.165 2.17 2.165s2.182-.99 2.182-2.177c0-1.185-.95-2.162-2.17-2.162zm.116 2.08h-.565v-.72h.565c.282 0 .45.126.45.36 0 .222-.168.36-.45.36zm.895-.384c0-.454-.348-.724-.877-.724h-1.016v2.27h.433v-.785h.475l.553.786h.518l-.615-.856c.314-.09.53-.318.53-.69zm75.92-17.382c-.818 0-1.46.61-1.46 1.454 0 .843.642 1.454 1.46 1.454.816 0 1.457-.61 1.457-1.454 0-.843-.64-1.454-1.458-1.454zm-46.09 8.752v-2.588h-1.72v13.87h1.75v-7.532c0-3.168 1.75-4.68 4.112-4.68.465 0 .903.057 1.224.145v-1.833c-.234-.087-.613-.145-1.08-.145-1.837 0-3.44.843-4.287 2.762zm-10.443 10.088c-2.74 0-5.133-2.122-5.133-5.727 0-3.634 2.393-5.728 5.134-5.728 2.742 0 5.134 2.094 5.134 5.728 0 3.605-2.392 5.727-5.134 5.727zm0-13.025c-3.907 0-6.912 2.936-6.912 7.298 0 4.332 3.034 7.298 6.912 7.298 3.88 0 6.912-2.966 6.912-7.298 0-4.362-3.032-7.298-6.912-7.298zm-6.592.35h-3.878v-1.6c0-2.21 1.254-2.936 2.653-2.936.613 0 1.05.117 1.313.233v-1.57c-.32-.145-.846-.29-1.575-.29-2.333 0-4.14 1.54-4.14 4.477v1.686h-2.86v1.57h2.86v12.298h1.75V16.846h3.877v-1.57zm91.387 6.32l-2.218-.493c-1.43-.32-2.187-1.018-2.187-2.21 0-1.453 1.4-2.442 2.975-2.442 2.216 0 3.18 1.308 3.44 2.646l1.547-.582c-.38-1.657-1.75-3.575-4.987-3.575-2.538 0-4.696 1.832-4.696 4.07 0 2.007 1.37 3.228 3.412 3.693l2.246.523c1.487.35 2.362 1.047 2.362 2.326 0 1.454-1.37 2.472-3.09 2.472-2.276 0-3.56-1.367-3.822-3.053l-1.603.553c.26 1.832 1.982 4.013 5.394 4.013 3.09 0 4.84-2.035 4.84-4.1 0-2.006-1.31-3.314-3.615-3.838zM222.76 10.9h-1.692v2.354c0 1.425-.584 2.035-1.954 2.035h-1.05v1.57h2.946v8.547c0 2.53 1.4 3.896 3.645 3.896.846 0 1.488-.145 1.72-.262V27.5c-.262.117-.758.233-1.253.233-1.575 0-2.362-.814-2.362-2.5V16.86h3.616v-1.57h-3.616V10.9zm-8.552 10.698l-2.217-.494c-1.427-.32-2.186-1.018-2.186-2.21 0-1.453 1.4-2.442 2.975-2.442 2.215 0 3.178 1.308 3.44 2.646l1.546-.582c-.38-1.657-1.75-3.575-4.987-3.575-2.538 0-4.696 1.832-4.696 4.07 0 2.007 1.37 3.228 3.412 3.693l2.246.523c1.487.35 2.362 1.047 2.362 2.326 0 1.454-1.37 2.472-3.092 2.472-2.275 0-3.558-1.367-3.82-3.053l-1.604.553c.262 1.832 1.983 4.013 5.395 4.013 3.09 0 4.84-2.035 4.84-4.1 0-2.006-1.31-3.314-3.615-3.838zm-9.707 7.56h1.75v-13.87h-1.75v13.87zm-5.425-18.26h-1.69v2.356c0 1.425-.584 2.035-1.955 2.035h-1.05v1.57h2.945v8.547c0 2.53 1.4 3.896 3.646 3.896.847 0 1.488-.145 1.72-.262V27.5c-.26.117-.757.233-1.252.233-1.575 0-2.363-.814-2.363-2.5V16.86h3.616v-1.57h-3.615V10.9zm-11.092 6.98v-2.59h-1.72v13.87h1.75v-7.53c0-3.17 1.748-4.682 4.11-4.682.468 0 .905.06 1.226.146V15.26c-.235-.087-.613-.145-1.08-.145-1.838 0-3.442.843-4.287 2.762zm-14.873 3.958l3.713-9.355 3.738 9.356h-7.45zm2.708-11.217l-7.525 18.53h1.904l2.266-5.686h8.746l2.29 5.686h1.904l-7.524-18.53h-2.062zM103.91 9.153c-1.222 0-2.214.987-2.214 2.206 0 1.22.992 2.208 2.215 2.208 1.223 0 2.214-.99 2.214-2.208 0-1.22-.99-2.206-2.213-2.206zm1.53 6.113h-3.088c-.125 0-.226.1-.226.225v13.425c0 .125.1.226.226.226h3.087c.123 0 .225-.1.225-.226V15.492c0-.124-.102-.225-.226-.225zm22.853.11c-.042-.06-.11-.097-.185-.097h-3.214c-.096 0-.182.06-.213.15l-3.29 9.375-3.607-9.38c-.033-.087-.117-.145-.21-.145h-5.274v-.425c0-1.25.48-1.808 1.56-1.808.643 0 1.16.127 1.74.32.07.022.144.01.202-.032.06-.043.094-.11.094-.183V10.56c0-.1-.064-.188-.16-.217-.612-.18-1.394-.367-2.565-.367-2.85 0-4.358 1.6-4.358 4.626v.652h-1.482c-.124 0-.227.1-.227.225v2.657c0 .124.103.225.227.225h1.482v10.555c0 .125.1.226.226.226h3.086c.125 0 .226-.1.226-.226V18.362h2.882l4.415 10.553c-.5 1.108-.994 1.33-1.667 1.33-.544 0-1.116-.163-1.702-.482-.055-.03-.12-.035-.18-.017-.058.02-.108.064-.133.12l-1.046 2.29c-.05.107-.008.235.096.29 1.092.59 2.078.842 3.296.842 2.28 0 3.54-1.06 4.65-3.905l5.355-13.796c.027-.07.02-.147-.024-.21zm-27.828-.11h-3.397v-3.462c0-.124-.1-.226-.225-.226h-3.086c-.125 0-.226.1-.226.225v3.462h-1.484c-.124 0-.224.1-.224.225v2.645c0 .124.1.225.224.225h1.485v6.844c0 2.765 1.38 4.167 4.104 4.167 1.107 0 2.026-.228 2.89-.717.072-.04.116-.115.116-.196v-2.518c0-.078-.04-.15-.107-.19-.068-.044-.152-.046-.22-.012-.595.3-1.17.436-1.812.436-.99 0-1.432-.448-1.432-1.453v-6.36h3.397c.125 0 .225-.102.225-.226v-2.645c0-.124-.1-.225-.225-.225zM84.19 26.327c-2.214 0-3.883-1.772-3.883-4.122 0-2.36 1.61-4.073 3.83-4.073 2.227 0 3.907 1.773 3.907 4.124 0 2.36-1.622 4.07-3.855 4.07zm0-11.342c-4.162 0-7.42 3.194-7.42 7.27 0 4.035 3.236 7.194 7.367 7.194 4.175 0 7.444-3.183 7.444-7.245 0-4.05-3.245-7.22-7.39-7.22zm-15.6 11.317c-2.11 0-3.7-1.76-3.7-4.097 0-2.337 1.59-4.097 3.7-4.097 2.102 0 3.628 1.722 3.628 4.097 0 2.413-1.492 4.097-3.627 4.097zm.716-11.317c-1.738 0-3.164.683-4.34 2.082v-1.575c0-.124-.1-.225-.226-.225h-3.087c-.124 0-.225.1-.225.225v17.494c0 .124.1.226.225.226h3.087c.125 0 .226-.102.226-.226v-5.522c1.176 1.316 2.602 1.96 4.34 1.96 3.23 0 6.5-2.48 6.5-7.22s-3.27-7.22-6.5-7.22zm-14.987 3.39c-3.448-.82-4.062-1.395-4.062-2.604 0-1.14 1.08-1.91 2.682-1.91 1.555 0 3.096.585 4.712 1.786.05.037.11.05.17.04.06-.007.114-.04.15-.09l1.683-2.366c.07-.097.05-.23-.043-.306-1.923-1.538-4.09-2.286-6.62-2.286-3.723 0-6.323 2.226-6.323 5.413 0 3.417 2.242 4.627 6.117 5.56 3.3.758 3.856 1.393 3.856 2.527 0 1.258-1.126 2.04-2.938 2.04-2.01 0-3.653-.677-5.49-2.262-.044-.04-.107-.057-.165-.053-.06.005-.116.032-.154.08l-1.888 2.238c-.08.093-.07.232.023.312 2.137 1.9 4.764 2.905 7.6 2.905 4.01 0 6.602-2.184 6.602-5.566 0-2.857-1.713-4.437-5.913-5.455zm-19.986-1.38c-.526.884-1.673 1.175-2.558.65-6.436-3.81-17.052-4.16-23.195-2.3-.986.297-2.03-.258-2.328-1.242-.3-.984.257-2.023 1.245-2.322 7.052-2.134 18.776-1.72 26.185 2.663.887.525 1.18 1.668.652 2.55zm-2.77 6.294c-.45.73-1.408.958-2.14.51-5.365-3.29-13.547-4.24-19.895-2.32-.824.248-1.693-.215-1.944-1.034-.247-.82.217-1.685 1.04-1.935 7.25-2.193 16.265-1.13 22.427 2.645.732.45.962 1.405.512 2.134zm-2.442 5.42c-.358.585-1.125.77-1.71.41-4.69-2.855-10.59-3.5-17.54-1.918-.67.153-1.337-.266-1.49-.933-.154-.668.264-1.334.936-1.486 7.605-1.734 14.128-.987 19.39 2.218.588.357.773 1.122.414 1.707zM19.965 0C8.94 0 0 8.91 0 19.903c0 10.994 8.94 19.905 19.965 19.905 11.028 0 19.966-8.91 19.966-19.905C39.93 8.91 30.994 0 19.966 0z" fill="#FFF" mask="url(#b)"/></g></svg>